# xmcd CD database file
#
# Track frame offsets:
#	150
#	11501
#	23186
#	35101
#	46678
#	60933
#	74081
#	88264
#	100566
#	112262
#
# Disc length: 1753 seconds
#
# Revision: 0
# Processed by: cddbd v1.5.2PL0 Copyright (c) Steve Scherf et al.
# Submitted via: CDex 1.70beta2
#
DISCID=8106d70a
DTITLE=Various Artist - Country Roads Legendary Ladies
DYEAR=1900
DGENRE=Country
TTITLE0=Kitty Wells - It Wasn't God Who Made Honky Tonk Angels
TTITLE1=Patsy Cline - Walkin' After Midnight
TTITLE2=Skeeter Davis - End Of The World
TTITLE3=Sammi Smith - Help Me Make It Through The Night
TTITLE4=MargoSmith - It Only Hurts For A Little While
TTITLE5=Lynn Anderson - Rose Garden
TTITLE6=Jeanie Seeley - Can I Sleep In Your Arms?
TTITLE7=Jeanne Pruett - Satin Sheets
TTITLE8=Donna Fargo - Happiest Girl In The USA
TTITLE9=Juice Newton - Angel Of The Morning
EXTD=
EXTT0=
EXTT1=
EXTT2=
EXTT3=
EXTT4=
EXTT5=
EXTT6=
EXTT7=
EXTT8=
EXTT9=
PLAYORDER=
